# xmcd
#
# Track frame offsets: 
#        150
#        9093
#        21075
#        31704
#        43924
#        57460
#        73042
#        84315
#        97058
#        110254
#        123836
#        133949
#        145364
#        157860
#        173581
#        185647
#        199087
#        210399
#        233669
#        248407
#        261427
#        278210
#        296278
#        311401
#        327240
#
# Disc length: 4558 seconds
#
# Revision: 0
# Processed by: cddbd v1.5.2PL0 Copyright (c) Steve Scherf et al.
# Submitted via: ExactAudioCopyFreeDBPlugin 1.0
#
DISCID=5711cc19
DTITLE=B.B. King - Everyday I Have The Blues: The Best Of B.B. King CD
DTITLE=3, 2013
DYEAR=1900
DGENRE=Blues
TTITLE0=My Baby's Gone
TTITLE1=Shake It Up And Go
TTITLE2=Fine Looking Woman
TTITLE3=The Fool
TTITLE4=Three O'Clock Blues
TTITLE5=My Own Fault
TTITLE6=Gotta Fine My Baby
TTITLE7=Please Love Me
TTITLE8=When My Heart Beats Like A Hammer
TTITLE9=Sweet Little Angel
TTITLE10=Jump With You Baby
TTITLE11=Did You Ever Love A Woman
TTITLE12=Ten Long Years
TTITLE13=Troubles Don't Last
TTITLE14=Dark Is The Night  (Pt. 1)
TTITLE15=Troubles, Troubles, Troubles
TTITLE16=Days Of Old
TTITLE17=You Done Lost Your Good Thing Now
TTITLE18=Mr. Pawnbroker
TTITLE19=Driving Wheel
TTITLE20=Walking Dr. Bill
TTITLE21=Hold That Train
TTITLE22=So Many Days
TTITLE23=Strange Things Happening
TTITLE24=Slow Walk
EXTD=
EXTT0=
EXTT1=
EXTT2=
EXTT3=
EXTT4=
EXTT5=
EXTT6=
EXTT7=
EXTT8=
EXTT9=
EXTT10=
EXTT11=
EXTT12=
EXTT13=
EXTT14=
EXTT15=
EXTT16=
EXTT17=
EXTT18=
EXTT19=
EXTT20=
EXTT21=
EXTT22=
EXTT23=
EXTT24=
PLAYORDER=
